<svg width="22" height="22" viewBox="0 0 22 22" fill="none" xmlns="http://www.w3.org/2000/svg">
<path d="M15.5846 13.975V20.2743C15.5847 20.3554 15.5632 20.435 15.5223 20.5051C15.4815 20.5752 15.4228 20.6332 15.3523 20.6731C15.2817 20.7131 15.2018 20.7337 15.1207 20.7327C15.0397 20.7317 14.9603 20.7092 14.8907 20.6676L11.0013 18.3337L7.11189 20.6676C7.04226 20.7093 6.9628 20.7318 6.88163 20.7327C6.80047 20.7336 6.7205 20.713 6.64993 20.6729C6.57935 20.6328 6.52068 20.5747 6.47992 20.5045C6.43917 20.4343 6.41779 20.3546 6.41797 20.2734V13.9759C5.23194 13.0263 4.37013 11.7318 3.95164 10.2712C3.53315 8.81065 3.57865 7.25616 4.08184 5.82257C4.58503 4.38898 5.52107 3.14707 6.7606 2.26847C8.00014 1.38988 9.48197 0.917969 11.0013 0.917969C12.5206 0.917969 14.0025 1.38988 15.242 2.26847C16.4815 3.14707 17.4176 4.38898 17.9208 5.82257C18.424 7.25616 18.4695 8.81065 18.051 10.2712C17.6325 11.7318 16.7707 13.0263 15.5846 13.9759V13.975ZM8.2513 15.0502V17.8461L11.0013 16.1961L13.7513 17.8461V15.0502C12.8776 15.4036 11.9438 15.5847 11.0013 15.5837C10.0588 15.5847 9.12503 15.4036 8.2513 15.0502V15.0502ZM11.0013 13.7504C12.46 13.7504 13.8589 13.1709 14.8904 12.1395C15.9218 11.108 16.5013 9.70907 16.5013 8.25038C16.5013 6.79169 15.9218 5.39275 14.8904 4.3613C13.8589 3.32985 12.46 2.75038 11.0013 2.75038C9.54261 2.75038 8.14367 3.32985 7.11222 4.3613C6.08076 5.39275 5.5013 6.79169 5.5013 8.25038C5.5013 9.70907 6.08076 11.108 7.11222 12.1395C8.14367 13.1709 9.54261 13.7504 11.0013 13.7504V13.7504Z" fill="white"/>
</svg>
