<svg width="22" height="22" viewBox="0 0 22 22" fill="none" xmlns="http://www.w3.org/2000/svg">
<g clip-path="url(#clip0_2754_6666)">
<path d="M21.7387 2.09452C21.5646 1.9211 21.329 1.82373 21.0833 1.82373C20.8376 1.82373 20.6019 1.9211 20.4279 2.09452L16.0609 6.46151L15.7675 6.1746C14.9942 5.41922 13.979 4.96101 12.9009 4.88069C11.8229 4.80036 10.751 5.10308 9.87427 5.73551C8.60885 6.68976 7.20226 7.44068 5.70527 7.96118L3.80411 8.51851C3.18632 8.69986 2.61329 9.00843 2.12185 9.42441C1.63041 9.84039 1.23142 10.3546 0.950522 10.9339C0.674245 11.5054 0.520366 12.1283 0.49874 12.7627C0.477115 13.3971 0.588219 14.029 0.824939 14.618C1.72215 16.8205 3.26026 18.7028 5.2399 20.0208C7.21954 21.3388 9.54944 22.0318 11.9276 22.01H12.7746C12.9641 22.0099 13.149 21.9516 13.3044 21.8432C14.918 20.7899 16.2969 19.4153 17.3553 17.8051C18.4136 16.195 19.1285 14.3838 19.4553 12.4849C19.5689 11.7588 19.5074 11.0161 19.2757 10.3186C19.044 9.62114 18.6489 8.98918 18.1234 8.47543L17.39 7.75676L21.7414 3.40535C21.9145 3.23094 22.0114 2.99506 22.0109 2.74936C22.0103 2.50367 21.9125 2.2682 21.7387 2.09452ZM12.4739 20.1528H11.9239C10.5695 20.1547 9.22785 19.8909 7.97494 19.3764L7.98502 19.3709C9.58818 18.5665 10.9606 17.3679 11.9734 15.8876L12.4483 15.19C12.5866 14.987 12.6386 14.7374 12.5929 14.496C12.5472 14.2546 12.4074 14.0413 12.2044 13.903C12.0014 13.7647 11.7518 13.7126 11.5104 13.7584C11.2691 13.8041 11.0558 13.9438 10.9174 14.1468L10.4426 14.8444C9.60588 16.065 8.47292 17.0532 7.14994 17.7163L6.00319 18.2938C5.08571 17.6489 4.28498 16.8522 3.63544 15.938C5.13784 15.4325 6.50855 14.5983 7.64769 13.496C7.82346 13.3241 7.92375 13.0895 7.9265 12.8436C7.92925 12.5978 7.83424 12.3609 7.66236 12.1852C7.49047 12.0094 7.25581 11.9091 7.00998 11.9064C6.76415 11.9036 6.52729 11.9986 6.35152 12.1705C5.32567 13.1645 4.07364 13.8943 2.70319 14.2972C2.64727 14.1734 2.58677 14.0524 2.53636 13.925C2.39439 13.5764 2.32793 13.2016 2.34136 12.8254C2.35479 12.4492 2.4478 12.0801 2.61427 11.7424C2.7828 11.3957 3.02181 11.088 3.31603 10.8389C3.61024 10.5899 3.95319 10.4049 4.32294 10.2959L6.22319 9.73859C7.32589 9.38435 8.38069 8.89544 9.36369 8.28293L16.6191 15.3522C15.6551 17.2713 14.231 18.9218 12.4739 20.1565V20.1528ZM17.6256 12.1934C17.5555 12.6223 17.461 13.0468 17.3424 13.4648L10.9523 7.24159C11.4211 6.90466 11.9837 6.7232 12.561 6.72276C13.2752 6.72186 13.9611 7.00131 14.4714 7.50101L16.8263 9.80092C17.1407 10.1078 17.3772 10.4854 17.5162 10.9022C17.6553 11.3189 17.6928 11.7629 17.6256 12.1971V12.1934Z" fill="white"/>
</g>
<defs>
<clipPath id="clip0_2754_6666">
<rect width="22" height="22" fill="white"/>
</clipPath>
</defs>
</svg>
