<svg width="20" height="20" viewBox="0 0 20 20" fill="none" xmlns="http://www.w3.org/2000/svg">
<g clip-path="url(#clip0_2754_6578)">
<path d="M18.7512 3.31335H16.1795C16.0147 3.31339 15.8536 3.36228 15.7166 3.45385C15.5796 3.54542 15.4728 3.67556 15.4098 3.82781C15.3467 3.98006 15.3302 4.14759 15.3623 4.30921C15.3945 4.47084 15.4738 4.61931 15.5903 4.73585L16.4953 5.64085L13.507 8.62836C13.3482 8.7801 13.137 8.86479 12.9174 8.86479C12.6978 8.86479 12.4866 8.7801 12.3278 8.62836L12.1862 8.48586C11.71 8.03091 11.0768 7.77704 10.4182 7.77704C9.75968 7.77704 9.12648 8.03091 8.65032 8.48586L4.40032 12.7359C4.24373 12.8929 4.15594 13.1057 4.15625 13.3275C4.15656 13.5492 4.24496 13.7618 4.40199 13.9184C4.55902 14.0749 4.77182 14.1627 4.99358 14.1624C5.21535 14.1621 5.4279 14.0737 5.58449 13.9167L9.83449 9.66669C9.99317 9.51475 10.2044 9.42994 10.4241 9.42994C10.6438 9.42994 10.855 9.51475 11.0137 9.66669L11.1553 9.80919C11.6317 10.2638 12.2648 10.5174 12.9232 10.5174C13.5817 10.5174 14.2148 10.2638 14.6912 9.80919L17.6795 6.82086L18.5845 7.72585C18.7014 7.84048 18.8495 7.91811 19.0103 7.94906C19.1711 7.98001 19.3375 7.9629 19.4886 7.89987C19.6397 7.83684 19.7689 7.73068 19.8601 7.59466C19.9513 7.45863 20.0003 7.29877 20.0012 7.13502V4.56335C20.0012 4.23183 19.8695 3.91389 19.635 3.67947C19.4006 3.44505 19.0827 3.31335 18.7512 3.31335Z" fill="white"/>
<path d="M19.1667 18.3133H4.16667C3.50363 18.3133 2.86774 18.0499 2.3989 17.5811C1.93006 17.1123 1.66667 16.4764 1.66667 15.8133V0.833333C1.66667 0.61232 1.57887 0.400358 1.42259 0.244078C1.26631 0.0877974 1.05435 0 0.833333 0C0.61232 0 0.400358 0.0877974 0.244078 0.244078C0.0877974 0.400358 0 0.61232 0 0.833333L0 15.8133C0.00132321 16.918 0.440735 17.977 1.22185 18.7582C2.00296 19.5393 3.062 19.9787 4.16667 19.98H19.1667C19.3877 19.98 19.5996 19.8922 19.7559 19.7359C19.9122 19.5796 20 19.3677 20 19.1467C20 18.9257 19.9122 18.7137 19.7559 18.5574C19.5996 18.4011 19.3877 18.3133 19.1667 18.3133Z" fill="white"/>
</g>
<defs>
<clipPath id="clip0_2754_6578">
<rect width="20" height="20" fill="white"/>
</clipPath>
</defs>
</svg>
