<svg width="20" height="20" viewBox="0 0 20 20" fill="none" xmlns="http://www.w3.org/2000/svg">
<path fill-rule="evenodd" clip-rule="evenodd" d="M10 20.0004C15.5229 20.0004 20 15.5232 20 10.0002H17.7778C17.7778 14.2959 14.2956 17.7782 10 17.7782C5.70446 17.7782 2.22222 14.2959 2.22222 10.0002C2.22222 5.70458 5.70446 2.22227 10 2.22227C11.2353 2.22227 12.4034 2.51029 13.4408 3.02283L14.9229 1.2937C13.4696 0.470157 11.7897 0 10 0C4.47716 0 0 4.47725 0 10.0002C0 15.5232 4.47716 20.0004 10 20.0004ZM17.4932 6.29975C17.9037 5.84362 17.8667 5.14106 17.4106 4.73054C16.9545 4.32003 16.2519 4.35701 15.8414 4.81314L9.62744 11.7177L7.4555 9.53161C7.02299 9.09628 6.31948 9.09399 5.88416 9.52651C5.44884 9.95902 5.44656 10.6625 5.87906 11.0979L8.87912 14.1175C9.09439 14.3342 9.38938 14.4528 9.69474 14.4452C10.0001 14.4376 10.2889 14.3048 10.4932 14.0777L17.4932 6.29975Z" fill="#009379"/>
</svg>
