<svg width="22" height="22" viewBox="0 0 22 22" fill="none" xmlns="http://www.w3.org/2000/svg">
<g clip-path="url(#clip0_2754_6668)">
<path d="M22.0002 10.5416C21.9998 9.90944 21.8125 9.29152 21.462 8.76541C21.1116 8.2393 20.6135 7.82844 20.0303 7.58443C19.6582 5.45993 18.5488 3.5347 16.8973 2.14738C15.2458 0.760059 13.158 -0.000488281 11.0012 -0.000488281C8.84431 -0.000488281 6.75652 0.760059 5.10504 2.14738C3.45357 3.5347 2.34417 5.45993 1.972 7.58443C1.3065 7.86441 0.754892 8.36068 0.406371 8.99298C0.0578511 9.62529 -0.067207 10.3567 0.0514194 11.0688C0.170046 11.781 0.525421 12.4324 1.06008 12.9176C1.59474 13.4028 2.27743 13.6934 2.99775 13.7426C3.47119 14.7473 4.11329 15.6635 4.89616 16.4513C3.74903 17.7039 3.02102 19.283 2.8135 20.9687C2.79847 21.0882 2.80714 21.2094 2.839 21.3256C2.87086 21.4417 2.9253 21.5504 2.99919 21.6455C3.07308 21.7406 3.16498 21.8202 3.26964 21.8797C3.3743 21.9393 3.48967 21.9776 3.60916 21.9926C3.64688 21.9972 3.68483 21.9996 3.72283 21.9999C3.94592 21.9997 4.16125 21.9181 4.32848 21.7704C4.49571 21.6228 4.60336 21.4192 4.63125 21.1978C4.79744 19.8688 5.37981 18.6264 6.295 17.6485C7.66004 18.6561 9.30395 19.2156 11.0002 19.2499C12.6915 19.2153 14.3306 18.6582 15.6927 17.6549C16.6039 18.6312 17.1839 19.87 17.35 21.1951C17.3777 21.4166 17.4852 21.6204 17.6525 21.7682C17.8197 21.9161 18.0352 21.9978 18.2584 21.9981C18.2967 21.9979 18.335 21.9955 18.373 21.9908C18.6141 21.9606 18.8334 21.8358 18.9826 21.644C19.1318 21.4522 19.1987 21.2089 19.1687 20.9678C18.9626 19.2863 18.2382 17.7107 17.0961 16.4596C17.8833 15.6693 18.5288 14.7497 19.0046 13.7408C19.8165 13.6868 20.5776 13.3264 21.1338 12.7324C21.69 12.1384 21.9997 11.3553 22.0002 10.5416ZM18.5609 11.8918C18.3471 11.8527 18.1263 11.8913 17.9385 12.0008C17.7507 12.1102 17.6083 12.2833 17.537 12.4886C16.6973 14.8701 13.8694 17.4166 11.0002 17.4166C8.13108 17.4166 5.30316 14.8683 4.4635 12.4868C4.39203 12.2815 4.24957 12.1086 4.06181 11.9992C3.87405 11.8898 3.65337 11.851 3.43958 11.89C3.3634 11.905 3.28616 11.9138 3.20858 11.9166C2.8683 11.9125 2.54162 11.7824 2.29171 11.5514C2.04181 11.3205 1.88644 11.005 1.85565 10.6661C1.82486 10.3272 1.92084 9.98891 2.12503 9.71667C2.32922 9.44443 2.6271 9.25759 2.96108 9.19226C3.15598 9.15693 3.33419 9.05943 3.46903 8.91434C3.60387 8.76925 3.68809 8.58439 3.70908 8.38743C3.8315 7.2153 4.23598 6.09025 4.88793 5.1085C5.53988 4.12674 6.4199 3.31749 7.45275 2.74993C7.30265 3.33302 7.29573 3.94376 7.43258 4.5301C7.61895 5.3055 8.05303 5.999 8.66904 6.50548C9.28504 7.01196 10.0494 7.3038 10.8462 7.33676C11.643 7.36972 12.4288 7.142 13.0845 6.68812C13.7403 6.23425 14.2301 5.57896 14.4799 4.8216C14.5206 4.68706 14.5291 4.54482 14.5047 4.40639C14.4802 4.26797 14.4235 4.13724 14.3392 4.02479C14.2549 3.91233 14.1452 3.82131 14.0192 3.75908C13.8931 3.69686 13.7542 3.66517 13.6137 3.6666H13.4752C13.3066 3.67212 13.1442 3.73115 13.0114 3.83513C12.8785 3.93912 12.7822 4.08267 12.7364 4.24501C12.6299 4.56549 12.4369 4.85031 12.1787 5.06804C11.9205 5.28578 11.6072 5.42797 11.2734 5.47893C10.9395 5.5299 10.5981 5.48765 10.2867 5.35685C9.97532 5.22606 9.70613 5.01179 9.50882 4.7377C9.3115 4.46361 9.19374 4.14034 9.16851 3.80356C9.14328 3.46677 9.21156 3.12957 9.36584 2.82914C9.52011 2.5287 9.75437 2.27672 10.0428 2.10099C10.3312 1.92526 10.6625 1.83261 11.0002 1.83326C12.8114 1.82893 14.5598 2.49684 15.9067 3.70765C17.2537 4.91846 18.1034 6.58603 18.2914 8.38743C18.3124 8.58439 18.3966 8.76925 18.5315 8.91434C18.6663 9.05943 18.8445 9.15693 19.0394 9.19226C19.3734 9.25759 19.6713 9.44443 19.8755 9.71667C20.0797 9.98891 20.1756 10.3272 20.1448 10.6661C20.1141 11.005 19.9587 11.3205 19.7088 11.5514C19.4589 11.7824 19.1322 11.9125 18.7919 11.9166C18.7144 11.9144 18.6371 11.9062 18.5609 11.8918Z" fill="white"/>
<path d="M8.70898 11.9165C9.46838 11.9165 10.084 11.3009 10.084 10.5415C10.084 9.78211 9.46838 9.1665 8.70898 9.1665C7.94959 9.1665 7.33398 9.78211 7.33398 10.5415C7.33398 11.3009 7.94959 11.9165 8.70898 11.9165Z" fill="white"/>
<path d="M13.291 11.9165C14.0504 11.9165 14.666 11.3009 14.666 10.5415C14.666 9.78211 14.0504 9.1665 13.291 9.1665C12.5316 9.1665 11.916 9.78211 11.916 10.5415C11.916 11.3009 12.5316 11.9165 13.291 11.9165Z" fill="white"/>
</g>
<defs>
<clipPath id="clip0_2754_6668">
<rect width="22" height="22" fill="white"/>
</clipPath>
</defs>
</svg>
