<svg width="21" height="21" viewBox="0 0 21 21" fill="none" xmlns="http://www.w3.org/2000/svg">
<g clip-path="url(#clip0_2340_4655)">
<path d="M10.416 2.8183C15.0896 2.8183 18.8788 6.6076 18.8789 11.2812C18.8789 15.9549 15.0897 19.7441 10.416 19.7441H6.07617C5.71741 19.7438 5.42578 19.4525 5.42578 19.0937C5.42592 18.735 5.71749 18.4436 6.07617 18.4433H10.416C14.3718 18.4433 17.5781 15.2369 17.5781 11.2812C17.578 7.32557 14.3717 4.11908 10.416 4.11908C6.46058 4.11934 3.25405 7.32573 3.25391 11.2812C3.25391 11.6402 2.9625 11.9316 2.60352 11.9316C2.24475 11.9313 1.95313 11.64 1.95312 11.2812C1.95327 6.60776 5.74261 2.81856 10.416 2.8183ZM8.68066 15.8417C9.03932 15.842 9.33086 16.1335 9.33105 16.4921C9.33105 16.851 9.03945 17.1423 8.68066 17.1425H3.47266C3.11367 17.1425 2.82227 16.8511 2.82227 16.4921C2.82246 16.1333 3.11379 15.8417 3.47266 15.8417H8.68066ZM6.07617 13.2402C6.43482 13.2404 6.72631 13.5319 6.72656 13.8906C6.72656 14.2494 6.43498 14.5407 6.07617 14.541H1.73633C1.37734 14.541 1.08594 14.2495 1.08594 13.8906C1.0862 13.5318 1.3775 13.2402 1.73633 13.2402H6.07617ZM10.417 8.02924C10.7757 8.02942 11.0672 8.32092 11.0674 8.67963V12.1523C11.0671 12.511 10.7757 12.8015 10.417 12.8017C10.0582 12.8017 9.76684 12.5111 9.7666 12.1523V8.67963C9.7668 8.32081 10.0581 8.02924 10.417 8.02924ZM12.1533 0.214783C12.512 0.215127 12.8027 0.506401 12.8027 0.865173C12.8025 1.22377 12.5119 1.51522 12.1533 1.51556L8.68066 1.51556C8.32181 1.51556 8.03048 1.22398 8.03027 0.865173C8.03027 0.506188 8.32168 0.214783 8.68066 0.214783L12.1533 0.214783Z" fill="white"/>
</g>
<defs>
<clipPath id="clip0_2340_4655">
<rect width="20.8333" height="20.8333" fill="white"/>
</clipPath>
</defs>
</svg>
