<svg width="22" height="22" viewBox="0 0 22 22" fill="none" xmlns="http://www.w3.org/2000/svg">
<g clip-path="url(#clip0_2754_6610)">
<path d="M4.58463 12.8333C5.09089 12.8333 5.5013 12.4229 5.5013 11.9167C5.5013 11.4104 5.09089 11 4.58463 11C4.07837 11 3.66797 11.4104 3.66797 11.9167C3.66797 12.4229 4.07837 12.8333 4.58463 12.8333Z" fill="white"/>
<path d="M0.916667 9.16683C1.42293 9.16683 1.83333 8.75642 1.83333 8.25016C1.83333 7.7439 1.42293 7.3335 0.916667 7.3335C0.410406 7.3335 0 7.7439 0 8.25016C0 8.75642 0.410406 9.16683 0.916667 9.16683Z" fill="white"/>
<path d="M4.58463 5.49983C5.09089 5.49983 5.5013 5.08943 5.5013 4.58317C5.5013 4.07691 5.09089 3.6665 4.58463 3.6665C4.07837 3.6665 3.66797 4.07691 3.66797 4.58317C3.66797 5.08943 4.07837 5.49983 4.58463 5.49983Z" fill="white"/>
<path d="M0.916667 1.83333C1.42293 1.83333 1.83333 1.42293 1.83333 0.916667C1.83333 0.410406 1.42293 0 0.916667 0C0.410406 0 0 0.410406 0 0.916667C0 1.42293 0.410406 1.83333 0.916667 1.83333Z" fill="white"/>
<path d="M21.0846 12.8333C21.5909 12.8333 22.0013 12.4229 22.0013 11.9167C22.0013 11.4104 21.5909 11 21.0846 11C20.5784 11 20.168 11.4104 20.168 11.9167C20.168 12.4229 20.5784 12.8333 21.0846 12.8333Z" fill="white"/>
<path d="M17.4167 9.16683C17.9229 9.16683 18.3333 8.75642 18.3333 8.25016C18.3333 7.7439 17.9229 7.3335 17.4167 7.3335C16.9104 7.3335 16.5 7.7439 16.5 8.25016C16.5 8.75642 16.9104 9.16683 17.4167 9.16683Z" fill="white"/>
<path d="M21.0846 5.49983C21.5909 5.49983 22.0013 5.08943 22.0013 4.58317C22.0013 4.07691 21.5909 3.6665 21.0846 3.6665C20.5784 3.6665 20.168 4.07691 20.168 4.58317C20.168 5.08943 20.5784 5.49983 21.0846 5.49983Z" fill="white"/>
<path d="M17.4167 1.83333C17.9229 1.83333 18.3333 1.42293 18.3333 0.916667C18.3333 0.410406 17.9229 0 17.4167 0C16.9104 0 16.5 0.410406 16.5 0.916667C16.5 1.42293 16.9104 1.83333 17.4167 1.83333Z" fill="white"/>
<path d="M12.8346 21.9998C13.3409 21.9998 13.7513 21.5894 13.7513 21.0832C13.7513 20.5769 13.3409 20.1665 12.8346 20.1665C12.3284 20.1665 11.918 20.5769 11.918 21.0832C11.918 21.5894 12.3284 21.9998 12.8346 21.9998Z" fill="white"/>
<path d="M9.16666 18.3333C9.67292 18.3333 10.0833 17.9229 10.0833 17.4167C10.0833 16.9104 9.67292 16.5 9.16666 16.5C8.6604 16.5 8.25 16.9104 8.25 17.4167C8.25 17.9229 8.6604 18.3333 9.16666 18.3333Z" fill="white"/>
<path d="M12.8346 14.6668C13.3409 14.6668 13.7513 14.2564 13.7513 13.7502C13.7513 13.2439 13.3409 12.8335 12.8346 12.8335C12.3284 12.8335 11.918 13.2439 11.918 13.7502C11.918 14.2564 12.3284 14.6668 12.8346 14.6668Z" fill="white"/>
<path d="M9.16666 10.9998C9.67292 10.9998 10.0833 10.5894 10.0833 10.0832C10.0833 9.57691 9.67292 9.1665 9.16666 9.1665C8.6604 9.1665 8.25 9.57691 8.25 10.0832C8.25 10.5894 8.6604 10.9998 9.16666 10.9998Z" fill="white"/>
<path d="M13.7487 2.75C13.2625 2.75 12.7961 2.55685 12.4523 2.21303C12.1085 1.86921 11.9154 1.4029 11.9154 0.916667C11.9154 0.673552 11.8188 0.440394 11.6469 0.268485C11.475 0.0965771 11.2418 0 10.9987 0C10.7556 0 10.5224 0.0965771 10.3505 0.268485C10.1786 0.440394 10.082 0.673552 10.082 0.916667C10.082 1.4029 9.88887 1.86921 9.54506 2.21303C9.20124 2.55685 8.73493 2.75 8.2487 2.75C8.00558 2.75 7.77242 2.84658 7.60052 3.01849C7.42861 3.19039 7.33203 3.42355 7.33203 3.66667C7.33203 3.90978 7.42861 4.14294 7.60052 4.31485C7.77242 4.48676 8.00558 4.58333 8.2487 4.58333C8.73493 4.58333 9.20124 4.77649 9.54506 5.1203C9.88887 5.46412 10.082 5.93044 10.082 6.41667C10.082 6.65978 10.1786 6.89294 10.3505 7.06485C10.5224 7.23676 10.7556 7.33333 10.9987 7.33333C11.2418 7.33333 11.475 7.23676 11.6469 7.06485C11.8188 6.89294 11.9154 6.65978 11.9154 6.41667C11.9154 5.93044 12.1085 5.46412 12.4523 5.1203C12.7961 4.77649 13.2625 4.58333 13.7487 4.58333C13.9918 4.58333 14.225 4.48676 14.3969 4.31485C14.5688 4.14294 14.6654 3.90978 14.6654 3.66667C14.6654 3.42355 14.5688 3.19039 14.3969 3.01849C14.225 2.84658 13.9918 2.75 13.7487 2.75Z" fill="white"/>
<path d="M6.41667 17.4165C5.93044 17.4165 5.46412 17.2233 5.1203 16.8795C4.77649 16.5357 4.58333 16.0694 4.58333 15.5832C4.58333 15.3401 4.48676 15.1069 4.31485 14.935C4.14294 14.7631 3.90978 14.6665 3.66667 14.6665C3.42355 14.6665 3.19039 14.7631 3.01849 14.935C2.84658 15.1069 2.75 15.3401 2.75 15.5832C2.75 16.0694 2.55685 16.5357 2.21303 16.8795C1.86921 17.2233 1.4029 17.4165 0.916667 17.4165C0.673552 17.4165 0.440394 17.5131 0.268485 17.685C0.0965771 17.8569 0 18.09 0 18.3332C0 18.5763 0.0965771 18.8094 0.268485 18.9813C0.440394 19.1533 0.673552 19.2498 0.916667 19.2498C1.4029 19.2498 1.86921 19.443 2.21303 19.7868C2.55685 20.1306 2.75 20.5969 2.75 21.0832C2.75 21.3263 2.84658 21.5594 3.01849 21.7313C3.19039 21.9032 3.42355 21.9998 3.66667 21.9998C3.90978 21.9998 4.14294 21.9032 4.31485 21.7313C4.48676 21.5594 4.58333 21.3263 4.58333 21.0832C4.58333 20.5969 4.77649 20.1306 5.1203 19.7868C5.46412 19.443 5.93044 19.2498 6.41667 19.2498C6.65978 19.2498 6.89294 19.1533 7.06485 18.9813C7.23676 18.8094 7.33333 18.5763 7.33333 18.3332C7.33333 18.09 7.23676 17.8569 7.06485 17.685C6.89294 17.5131 6.65978 17.4165 6.41667 17.4165Z" fill="white"/>
<path d="M21.0846 17.4165C20.5984 17.4165 20.1321 17.2233 19.7883 16.8795C19.4444 16.5357 19.2513 16.0694 19.2513 15.5832C19.2513 15.3401 19.1547 15.1069 18.9828 14.935C18.8109 14.7631 18.5777 14.6665 18.3346 14.6665C18.0915 14.6665 17.8584 14.7631 17.6864 14.935C17.5145 15.1069 17.418 15.3401 17.418 15.5832C17.418 16.0694 17.2248 16.5357 16.881 16.8795C16.5372 17.2233 16.0709 17.4165 15.5846 17.4165C15.3415 17.4165 15.1084 17.5131 14.9365 17.685C14.7645 17.8569 14.668 18.09 14.668 18.3332C14.668 18.5763 14.7645 18.8094 14.9365 18.9813C15.1084 19.1533 15.3415 19.2498 15.5846 19.2498C16.0709 19.2498 16.5372 19.443 16.881 19.7868C17.2248 20.1306 17.418 20.5969 17.418 21.0832C17.418 21.3263 17.5145 21.5594 17.6864 21.7313C17.8584 21.9032 18.0915 21.9998 18.3346 21.9998C18.5777 21.9998 18.8109 21.9032 18.9828 21.7313C19.1547 21.5594 19.2513 21.3263 19.2513 21.0832C19.2513 20.5969 19.4444 20.1306 19.7883 19.7868C20.1321 19.443 20.5984 19.2498 21.0846 19.2498C21.3277 19.2498 21.5609 19.1533 21.7328 18.9813C21.9047 18.8094 22.0013 18.5763 22.0013 18.3332C22.0013 18.09 21.9047 17.8569 21.7328 17.685C21.5609 17.5131 21.3277 17.4165 21.0846 17.4165Z" fill="white"/>
</g>
<defs>
<clipPath id="clip0_2754_6610">
<rect width="22" height="22" fill="white"/>
</clipPath>
</defs>
</svg>
