<svg width="22" height="22" viewBox="0 0 22 22" fill="none" xmlns="http://www.w3.org/2000/svg">
<path d="M19.25 11.3883V10.083C19.25 7.89497 18.3808 5.79655 16.8336 4.24938C15.2864 2.7022 13.188 1.83301 11 1.83301C8.81194 1.83301 6.71352 2.7022 5.16634 4.24938C3.61917 5.79655 2.74997 7.89497 2.74997 10.083V11.3883C1.78854 11.8117 1.00171 12.5525 0.521212 13.4867C0.0407142 14.4208 -0.104286 15.4917 0.110486 16.5201C0.325258 17.5484 0.886765 18.4717 1.70101 19.1355C2.51525 19.7993 3.5328 20.1632 4.58331 20.1663C5.06954 20.1663 5.53585 19.9732 5.87967 19.6294C6.22349 19.2856 6.41664 18.8192 6.41664 18.333V12.833C6.41664 12.3468 6.22349 11.8805 5.87967 11.5366C5.53585 11.1928 5.06954 10.9997 4.58331 10.9997V10.083C4.58331 8.3812 5.25935 6.7491 6.46271 5.54574C7.66606 4.34238 9.29817 3.66634 11 3.66634C12.7018 3.66634 14.3339 4.34238 15.5372 5.54574C16.7406 6.7491 17.4166 8.3812 17.4166 10.083V10.9997C16.9304 10.9997 16.4641 11.1928 16.1203 11.5366C15.7765 11.8805 15.5833 12.3468 15.5833 12.833V18.333H12.8333C12.5902 18.333 12.357 18.4296 12.1851 18.6015C12.0132 18.7734 11.9166 19.0066 11.9166 19.2497C11.9166 19.4928 12.0132 19.7259 12.1851 19.8979C12.357 20.0698 12.5902 20.1663 12.8333 20.1663H17.4166C18.4672 20.1632 19.4847 19.7993 20.2989 19.1355C21.1132 18.4717 21.6747 17.5484 21.8895 16.5201C22.1042 15.4917 21.9592 14.4208 21.4787 13.4867C20.9982 12.5525 20.2114 11.8117 19.25 11.3883ZM4.58331 18.333C3.85396 18.333 3.15449 18.0433 2.63876 17.5276C2.12304 17.0118 1.83331 16.3124 1.83331 15.583C1.83331 14.8537 2.12304 14.1542 2.63876 13.6385C3.15449 13.1227 3.85396 12.833 4.58331 12.833V18.333ZM17.4166 18.333V12.833C18.146 12.833 18.8455 13.1227 19.3612 13.6385C19.8769 14.1542 20.1666 14.8537 20.1666 15.583C20.1666 16.3124 19.8769 17.0118 19.3612 17.5276C18.8455 18.0433 18.146 18.333 17.4166 18.333Z" fill="white"/>
</svg>
