<svg width="22" height="22" viewBox="0 0 22 22" fill="none" xmlns="http://www.w3.org/2000/svg">
<path d="M13.9318 9.11653C13.5342 8.73989 13.2785 8.23782 13.2076 7.69478L12.8382 4.8687L10.3357 6.23086C9.85454 6.49305 9.29773 6.58143 8.75903 6.48111L5.9577 5.95861L6.4802 8.75995C6.58051 9.29864 6.49213 9.85545 6.22995 10.3366L4.86778 12.8391L7.69387 13.2085C8.23658 13.2796 8.73829 13.5353 9.1147 13.9327L11.0745 16.0016L12.2992 13.4285C12.5343 12.9341 12.9324 12.5356 13.4267 12.3001L16.0007 11.0754L13.9318 9.11653ZM13.9547 14.2159L11.9261 18.4784C11.8877 18.559 11.8303 18.6291 11.7588 18.6825C11.6873 18.736 11.6039 18.7712 11.5157 18.7852C11.4276 18.7992 11.3373 18.7915 11.2528 18.7628C11.1682 18.7341 11.092 18.6853 11.0305 18.6205L7.7837 15.1931C7.69696 15.1016 7.58143 15.0427 7.45645 15.0263L2.77503 14.4139C2.68658 14.4023 2.6023 14.3693 2.52944 14.3178C2.45659 14.2663 2.39735 14.1979 2.35685 14.1184C2.31634 14.0389 2.29577 13.9508 2.29692 13.8616C2.29807 13.7724 2.3209 13.6848 2.36345 13.6064L4.62028 9.45936C4.68028 9.34846 4.70034 9.2203 4.67712 9.09636L3.8127 4.45528C3.79628 4.36743 3.80152 4.27691 3.82796 4.19155C3.8544 4.10618 3.90124 4.02854 3.96443 3.96535C4.02762 3.90216 4.10526 3.85531 4.19063 3.82888C4.276 3.80244 4.36652 3.7972 4.45437 3.81361L9.09545 4.67803C9.21939 4.70126 9.34754 4.68119 9.45845 4.6212L13.6054 2.36436C13.6839 2.32181 13.7716 2.29899 13.8609 2.29789C13.9501 2.29679 14.0383 2.31744 14.1178 2.35805C14.1973 2.39866 14.2657 2.45801 14.3172 2.53098C14.3686 2.60395 14.4015 2.68834 14.413 2.77686L15.0254 7.45737C15.0418 7.58234 15.1007 7.69787 15.1922 7.78461L18.6196 11.0314C18.6844 11.0929 18.7332 11.1692 18.7619 11.2537C18.7906 11.3382 18.7983 11.4285 18.7843 11.5166C18.7703 11.6048 18.7351 11.6882 18.6816 11.7597C18.6282 11.8312 18.5581 11.8887 18.4775 11.927L14.215 13.9556C14.1009 14.0099 14.009 14.1018 13.9547 14.2159ZM14.6853 15.9824L15.9814 14.6862L19.8709 18.5747L18.5738 19.8718L14.6853 15.9824Z" fill="white"/>
</svg>
