<svg width="22" height="22" viewBox="0 0 22 22" fill="none" xmlns="http://www.w3.org/2000/svg">
<g clip-path="url(#clip0_2754_6594)">
<path d="M18.3346 11C17.7723 10.9999 17.2174 11.1294 16.7132 11.3783C16.2089 11.6273 15.7688 11.989 15.4269 12.4355L15.3628 12.408C15.6149 11.6271 15.6527 10.7927 15.4722 9.99214C15.2917 9.19156 14.8996 8.45412 14.3368 7.85685C13.774 7.25957 13.0611 6.82436 12.2727 6.59667C11.4842 6.36899 10.6491 6.35717 9.85453 6.56246L9.77111 6.4048C10.437 5.81238 10.8639 4.99747 10.9719 4.1128C11.08 3.22813 10.8617 2.33443 10.358 1.59918C9.8543 0.863922 9.09976 0.337591 8.23579 0.118821C7.37181 -0.0999487 6.45771 0.00386007 5.6648 0.410793C4.87188 0.817725 4.25457 1.49985 3.92857 2.32933C3.60257 3.1588 3.59024 4.0787 3.89391 4.91661C4.19757 5.75452 4.79638 6.45294 5.57811 6.88097C6.35984 7.309 7.27083 7.43726 8.14036 7.24171L8.20728 7.3673C7.29066 8.07068 6.67405 9.09477 6.48124 10.234C6.28842 11.3732 6.53368 12.5431 7.16778 13.509L5.43986 15.125C4.65883 14.6935 3.74725 14.5616 2.87593 14.7541C2.00462 14.9465 1.23338 15.45 0.70674 16.1704C0.180096 16.8907 -0.0658051 17.7783 0.0151155 18.667C0.096036 19.5556 0.498224 20.3842 1.14631 20.9976C1.7944 21.6109 2.64391 21.9669 3.53565 21.9988C4.42739 22.0307 5.30015 21.7363 5.9904 21.1708C6.68064 20.6053 7.14098 19.8075 7.28516 18.9269C7.42934 18.0463 7.24746 17.1434 6.77361 16.3873L8.45844 14.8125C9.3838 15.431 10.5028 15.6911 11.6061 15.5441C12.7094 15.3972 13.7213 14.8532 14.4525 14.014L14.7083 14.1231C14.5973 14.8633 14.7155 15.6197 15.047 16.2907C15.3785 16.9617 15.9074 17.5153 16.5627 17.8769C17.2179 18.2386 17.9682 18.391 18.7126 18.3138C19.4571 18.2366 20.1601 17.9335 20.7272 17.445C21.2943 16.9566 21.6984 16.3064 21.8851 15.5816C22.0719 14.8568 22.0323 14.0923 21.7719 13.3906C21.5114 12.689 21.0424 12.0838 20.428 11.6565C19.8136 11.2292 19.083 11.0001 18.3346 11V11ZM5.50128 3.66671C5.50128 3.30411 5.6088 2.94966 5.81025 2.64817C6.0117 2.34668 6.29802 2.1117 6.63302 1.97293C6.96802 1.83417 7.33664 1.79787 7.69227 1.86861C8.04791 1.93935 8.37458 2.11395 8.63097 2.37035C8.88737 2.62675 9.06198 2.95342 9.13272 3.30905C9.20346 3.66468 9.16715 4.0333 9.02839 4.3683C8.88963 4.7033 8.65464 4.98963 8.35315 5.19107C8.05166 5.39252 7.69721 5.50005 7.33461 5.50005C6.84838 5.50005 6.38206 5.30689 6.03825 4.96308C5.69443 4.61926 5.50128 4.15294 5.50128 3.66671ZM3.66794 20.1667C3.30534 20.1667 2.95089 20.0592 2.6494 19.8577C2.34791 19.6563 2.11292 19.37 1.97416 19.035C1.8354 18.7 1.7991 18.3313 1.86984 17.9757C1.94058 17.6201 2.11518 17.2934 2.37158 17.037C2.62798 16.7806 2.95464 16.606 3.31028 16.5353C3.66591 16.4645 4.03453 16.5008 4.36953 16.6396C4.70453 16.7784 4.99085 17.0133 5.1923 17.3148C5.39375 17.6163 5.50128 17.9708 5.50128 18.3334C5.50128 18.8196 5.30812 19.2859 4.9643 19.6297C4.62049 19.9736 4.15417 20.1667 3.66794 20.1667ZM11.0013 13.75C10.4061 13.7489 9.82732 13.5546 9.35193 13.1965C8.87653 12.8384 8.53017 12.3356 8.36486 11.7639C8.19954 11.1921 8.2242 10.5821 8.43513 10.0255C8.64605 9.46894 9.03186 8.99582 9.53461 8.67721L9.90769 8.4783C10.2826 8.31523 10.6891 8.23779 11.0977 8.25162C11.5062 8.26545 11.9066 8.3702 12.2696 8.55825C12.6326 8.7463 12.9491 9.0129 13.1961 9.33868C13.443 9.66445 13.6143 10.0412 13.6973 10.4415C13.7803 10.8418 13.7731 11.2555 13.6761 11.6527C13.5791 12.0498 13.3947 12.4203 13.1365 12.7372C12.8782 13.0541 12.5526 13.3095 12.1832 13.4847C11.8139 13.6599 11.4101 13.7505 11.0013 13.75V13.75ZM18.3346 16.5C17.972 16.5 17.6176 16.3925 17.3161 16.1911C17.0146 15.9896 16.7796 15.7033 16.6408 15.3683C16.5021 15.0333 16.4658 14.6647 16.5365 14.309C16.6072 13.9534 16.7819 13.6267 17.0382 13.3704C17.2946 13.114 17.6213 12.9393 17.9769 12.8686C18.3326 12.7979 18.7012 12.8342 19.0362 12.9729C19.3712 13.1117 19.6575 13.3467 19.859 13.6482C20.0604 13.9497 20.1679 14.3041 20.1679 14.6667C20.1679 15.1529 19.9748 15.6193 19.631 15.9631C19.2872 16.3069 18.8208 16.5 18.3346 16.5Z" fill="white"/>
</g>
<defs>
<clipPath id="clip0_2754_6594">
<rect width="22" height="22" fill="white"/>
</clipPath>
</defs>
</svg>
