<svg width="22" height="22" viewBox="0 0 22 22" fill="none" xmlns="http://www.w3.org/2000/svg">
<g clip-path="url(#clip0_2754_6599)">
<path d="M17.1525 10.9999H12.8323C12.3461 10.9999 11.8797 10.8067 11.5359 10.4629C11.1921 10.1191 10.999 9.65277 10.999 9.16654V4.83438C11.0002 4.41269 10.9045 3.99637 10.7191 3.6176C10.5338 3.23883 10.2638 2.90775 9.93013 2.64996C9.61391 2.39954 9.24436 2.22516 8.85002 2.14028C8.45569 2.0554 8.04712 2.06231 7.65588 2.16046C5.43356 2.71212 3.4661 4.00577 2.07885 5.82746C0.691606 7.64915 -0.0323209 9.88977 0.0267907 12.1788C0.0859024 14.4678 0.924511 16.668 2.40393 18.4157C3.88335 20.1634 5.91497 21.3537 8.16279 21.79C10.6901 22.2737 13.3068 21.7729 15.4769 20.3901C17.647 19.0074 19.2064 16.8472 19.8356 14.3521C19.9341 13.9604 19.9413 13.5512 19.8566 13.1563C19.7719 12.7613 19.5976 12.3911 19.347 12.0742C19.0862 11.741 18.7532 11.4712 18.3731 11.2851C17.9931 11.099 17.5757 11.0015 17.1525 10.9999ZM18.0582 13.9039C17.7072 15.3173 16.9871 16.612 15.9716 17.6558C14.956 18.6996 13.6814 19.4549 12.2782 19.8444C10.875 20.234 9.39343 20.2438 7.98514 19.8729C6.57686 19.502 5.29236 18.7637 4.26302 17.7336C3.23369 16.7034 2.49646 15.4183 2.12675 14.0097C1.75703 12.6011 1.76809 11.1196 2.15881 9.71664C2.54952 8.31373 3.30586 7.03977 4.35047 6.02507C5.39508 5.01038 6.69046 4.29135 8.10413 3.94154C8.22507 3.91133 8.3514 3.90985 8.47301 3.93723C8.59462 3.96461 8.70814 4.02008 8.80446 4.09921C8.91821 4.18594 9.01046 4.29769 9.07404 4.42582C9.13763 4.55395 9.17085 4.695 9.17113 4.83804V9.16654C9.17113 10.139 9.55744 11.0716 10.2451 11.7593C10.9327 12.4469 11.8653 12.8332 12.8378 12.8332H17.1571C17.3014 12.8338 17.4437 12.8671 17.5732 12.9306C17.7028 12.9941 17.8163 13.0862 17.9051 13.1999C17.983 13.2975 18.0373 13.4119 18.0637 13.534C18.0901 13.6562 18.0879 13.7827 18.0573 13.9039H18.0582Z" fill="white"/>
<path d="M21.6809 6.82561C21.2589 5.27412 20.439 3.85973 19.3025 2.7224C18.166 1.58508 16.7522 0.764232 15.201 0.341107C15.0384 0.297391 14.8707 0.275201 14.7023 0.275107C14.4601 0.272806 14.2198 0.318528 13.9954 0.409631C13.7709 0.500733 13.5668 0.635411 13.3947 0.805881C13.2226 0.976352 13.086 1.17923 12.9928 1.40281C12.8995 1.62638 12.8516 1.86621 12.8516 2.10844V6.41677C12.8516 7.14612 13.1413 7.84559 13.657 8.36132C14.1727 8.87704 14.8722 9.16677 15.6016 9.16677H19.9273C20.2103 9.16405 20.4888 9.09613 20.7412 8.9683C20.9936 8.84046 21.2132 8.65614 21.3828 8.42967C21.5525 8.2032 21.6676 7.94066 21.7193 7.66247C21.771 7.38427 21.7578 7.0979 21.6809 6.82561ZM19.3911 7.33344H15.5979C15.3548 7.33344 15.1216 7.23686 14.9497 7.06495C14.7778 6.89305 14.6812 6.65989 14.6812 6.41677L14.6739 2.11486C14.6806 2.11001 14.6885 2.10715 14.6968 2.10661H14.7206C15.9692 2.44677 17.1068 3.10844 18.0198 4.0256C18.9327 4.94275 19.5892 6.08331 19.9236 7.33344H19.3911Z" fill="white"/>
</g>
<defs>
<clipPath id="clip0_2754_6599">
<rect width="22" height="22" fill="white"/>
</clipPath>
</defs>
</svg>
