<svg width="20" height="20" viewBox="0 0 20 20" fill="none" xmlns="http://www.w3.org/2000/svg">
<path d="M16.6654 8.33341C16.6654 13.3334 9.9987 18.3334 9.9987 18.3334C9.9987 18.3334 3.33203 13.3334 3.33203 8.33341C3.33203 6.5653 4.03441 4.86961 5.28465 3.61937C6.5349 2.36913 8.23059 1.66675 9.9987 1.66675C11.7668 1.66675 13.4625 2.36913 14.7127 3.61937C15.963 4.86961 16.6654 6.5653 16.6654 8.33341Z" stroke="#2D2D2D" stroke-width="1.2" stroke-linecap="round" stroke-linejoin="round"/>
<path d="M10 10.8333C11.3807 10.8333 12.5 9.71396 12.5 8.33325C12.5 6.95254 11.3807 5.83325 10 5.83325C8.61929 5.83325 7.5 6.95254 7.5 8.33325C7.5 9.71396 8.61929 10.8333 10 10.8333Z" stroke="#2D2D2D" stroke-width="1.2" stroke-linecap="round" stroke-linejoin="round"/>
</svg>
