<svg width="20" height="20" viewBox="0 0 20 20" fill="none" xmlns="http://www.w3.org/2000/svg">
<g clip-path="url(#clip0_2628_9506)">
<path d="M6.52647 16.6662C6.3856 17.0644 6.14615 17.4205 5.83046 17.7012C5.51477 17.9818 5.13313 18.178 4.72114 18.2713C4.30916 18.3646 3.88025 18.352 3.47444 18.2347C3.06863 18.1174 2.69914 17.8992 2.40045 17.6006C2.10175 17.3019 1.88358 16.9324 1.7663 16.5266C1.64901 16.1207 1.63643 15.6918 1.72973 15.2799C1.82302 14.8679 2.01916 14.4862 2.29983 14.1705C2.58051 13.8548 2.93657 13.6154 3.33481 13.4745V6.52452C2.93657 6.38365 2.58051 6.1442 2.29983 5.82851C2.01916 5.51282 1.82302 5.13118 1.72973 4.71919C1.63643 4.3072 1.64901 3.8783 1.7663 3.47249C1.88358 3.06668 2.10175 2.69719 2.40045 2.39849C2.69914 2.0998 3.06863 1.88163 3.47444 1.76434C3.88025 1.64706 4.30916 1.63448 4.72114 1.72777C5.13313 1.82107 5.51477 2.01721 5.83046 2.29788C6.14615 2.57855 6.3856 2.93462 6.52647 3.33286H13.4765C13.6173 2.93462 13.8568 2.57855 14.1725 2.29788C14.4882 2.01721 14.8698 1.82107 15.2818 1.72777C15.6938 1.63448 16.1227 1.64706 16.5285 1.76434C16.9343 1.88163 17.3038 2.0998 17.6025 2.39849C17.9012 2.69719 18.1194 3.06668 18.2367 3.47249C18.3539 3.8783 18.3665 4.3072 18.2732 4.71919C18.1799 5.13118 17.9838 5.51282 17.7031 5.82851C17.4224 6.1442 17.0664 6.38365 16.6681 6.52452V13.4745C17.0664 13.6154 17.4224 13.8548 17.7031 14.1705C17.9838 14.4862 18.1799 14.8679 18.2732 15.2799C18.3665 15.6918 18.3539 16.1207 18.2367 16.5266C18.1194 16.9324 17.9012 17.3019 17.6025 17.6006C17.3038 17.8992 16.9343 18.1174 16.5285 18.2347C16.1227 18.352 15.6938 18.3646 15.2818 18.2713C14.8698 18.178 14.4882 17.9818 14.1725 17.7012C13.8568 17.4205 13.6173 17.0644 13.4765 16.6662H6.52647ZM6.52647 14.9995H13.4765C13.6011 14.6479 13.8028 14.3285 14.0666 14.0646C14.3304 13.8008 14.6498 13.5992 15.0015 13.4745V6.52452C14.6498 6.39985 14.3304 6.19824 14.0666 5.93441C13.8028 5.67059 13.6011 5.35119 13.4765 4.99952H6.52647C6.4018 5.35119 6.2002 5.67059 5.93637 5.93441C5.67254 6.19824 5.35314 6.39985 5.00147 6.52452V13.4745C5.35314 13.5992 5.67254 13.8008 5.93637 14.0646C6.2002 14.3285 6.4018 14.6479 6.52647 14.9995ZM4.16814 4.99952C4.38916 4.99952 4.60112 4.91172 4.7574 4.75544C4.91368 4.59916 5.00147 4.3872 5.00147 4.16619C5.00147 3.94517 4.91368 3.73321 4.7574 3.57693C4.60112 3.42065 4.38916 3.33286 4.16814 3.33286C3.94713 3.33286 3.73517 3.42065 3.57889 3.57693C3.42261 3.73321 3.33481 3.94517 3.33481 4.16619C3.33481 4.3872 3.42261 4.59916 3.57889 4.75544C3.73517 4.91172 3.94713 4.99952 4.16814 4.99952ZM15.8348 4.99952C16.0558 4.99952 16.2678 4.91172 16.4241 4.75544C16.5803 4.59916 16.6681 4.3872 16.6681 4.16619C16.6681 3.94517 16.5803 3.73321 16.4241 3.57693C16.2678 3.42065 16.0558 3.33286 15.8348 3.33286C15.6138 3.33286 15.4018 3.42065 15.2456 3.57693C15.0893 3.73321 15.0015 3.94517 15.0015 4.16619C15.0015 4.3872 15.0893 4.59916 15.2456 4.75544C15.4018 4.91172 15.6138 4.99952 15.8348 4.99952ZM15.8348 16.6662C16.0558 16.6662 16.2678 16.5784 16.4241 16.4221C16.5803 16.2658 16.6681 16.0539 16.6681 15.8329C16.6681 15.6118 16.5803 15.3999 16.4241 15.2436C16.2678 15.0873 16.0558 14.9995 15.8348 14.9995C15.6138 14.9995 15.4018 15.0873 15.2456 15.2436C15.0893 15.3999 15.0015 15.6118 15.0015 15.8329C15.0015 16.0539 15.0893 16.2658 15.2456 16.4221C15.4018 16.5784 15.6138 16.6662 15.8348 16.6662ZM4.16814 16.6662C4.38916 16.6662 4.60112 16.5784 4.7574 16.4221C4.91368 16.2658 5.00147 16.0539 5.00147 15.8329C5.00147 15.6118 4.91368 15.3999 4.7574 15.2436C4.60112 15.0873 4.38916 14.9995 4.16814 14.9995C3.94713 14.9995 3.73517 15.0873 3.57889 15.2436C3.42261 15.3999 3.33481 15.6118 3.33481 15.8329C3.33481 16.0539 3.42261 16.2658 3.57889 16.4221C3.73517 16.5784 3.94713 16.6662 4.16814 16.6662Z" fill="white"/>
</g>
<defs>
<clipPath id="clip0_2628_9506">
<rect width="20" height="20" fill="white"/>
</clipPath>
</defs>
</svg>
