<svg width="22" height="22" viewBox="0 0 22 22" fill="none" xmlns="http://www.w3.org/2000/svg">
<g clip-path="url(#clip0_2697_2459)">
<path d="M21.9551 11.275L21.3088 6.69167C21.15 5.60077 20.6051 4.60305 19.7731 3.87976C18.9412 3.15647 17.8774 2.75561 16.775 2.75H4.58333C3.3682 2.75146 2.20326 3.23481 1.34403 4.09403C0.484808 4.95326 0.00145554 6.1182 0 7.33333L0 11.9167C0.00145554 13.1318 0.484808 14.2967 1.34403 15.156C2.20326 16.0152 3.3682 16.4985 4.58333 16.5H7.06933L8.82383 20.0548C9.11879 20.654 9.61927 21.1271 10.234 21.388C10.8488 21.6488 11.5368 21.68 12.1726 21.4759C12.8084 21.2717 13.3497 20.8458 13.6976 20.2758C14.0456 19.7058 14.1771 19.0298 14.0681 18.3709L13.7601 16.5H17.4167C18.0728 16.5 18.7213 16.3592 19.3183 16.087C19.9153 15.8148 20.4469 15.4176 20.8772 14.9222C21.3074 14.4269 21.6263 13.8449 21.8123 13.2157C21.9982 12.5865 22.0469 11.9247 21.9551 11.275ZM4.58333 4.58333H6.41667V14.6667H4.58333C3.85399 14.6667 3.15451 14.3769 2.63879 13.8612C2.12306 13.3455 1.83333 12.646 1.83333 11.9167V7.33333C1.83333 6.60399 2.12306 5.90451 2.63879 5.38879C3.15451 4.87306 3.85399 4.58333 4.58333 4.58333V4.58333ZM19.492 13.7207C19.2339 14.0176 18.9151 14.2558 18.557 14.419C18.199 14.5822 17.8101 14.6666 17.4167 14.6667H12.6803C12.5473 14.6666 12.4159 14.6955 12.2952 14.7514C12.1746 14.8072 12.0675 14.8886 11.9814 14.9899C11.8953 15.0912 11.8323 15.2101 11.7968 15.3382C11.7612 15.4663 11.754 15.6006 11.7755 15.7318L12.2595 18.6652C12.2827 18.8013 12.2757 18.9409 12.2387 19.074C12.2018 19.2071 12.136 19.3304 12.0459 19.4352C11.9403 19.549 11.8092 19.6361 11.6634 19.6894C11.5175 19.7427 11.3611 19.7606 11.207 19.7416C11.0529 19.7226 10.9055 19.6673 10.7769 19.5803C10.6483 19.4932 10.5423 19.3769 10.4674 19.2408L8.46083 15.1782C8.4079 15.0766 8.33639 14.9858 8.25 14.9105V4.58333H16.775C17.4371 4.58575 18.0762 4.826 18.576 5.26029C19.0757 5.69458 19.4028 6.29398 19.4975 6.94925L20.1447 11.5326C20.1989 11.9228 20.1688 12.3201 20.0562 12.6976C19.9436 13.0751 19.7512 13.424 19.492 13.7207V13.7207Z" fill="white"/>
</g>
<defs>
<clipPath id="clip0_2697_2459">
<rect width="22" height="22" fill="white"/>
</clipPath>
</defs>
</svg>
